# This file uses centimeters as units for non-parametric coordinates.

mtllib legLtop.mtl
g default
v 43.507271 -62.292297 55.264221
v 54.853172 -23.146561 78.019646
v 37.535027 18.029434 75.510323
v 56.146278 22.300812 39.162628
v 82.266281 -14.784607 37.501007
v 25.811882 45.089951 43.658371
v 59.570732 21.499741 -13.003250
v 22.785210 3.877380 -48.616653
v 87.825668 -6.644150 1.340363
v 92.029526 -65.331360 15.094971
v 88.512314 -9.025085 -58.696777
v 52.585442 -17.873047 -82.442383
v 89.045944 -89.928543 -33.334244
v 109.034653 -42.727280 -98.774658
v 74.500870 -43.034744 -116.133484
v 68.919846 -88.821854 -0.606766
v 40.743706 -95.219193 -73.939880
v 7.433281 -91.300949 -33.988068
v 65.478012 -96.790680 -52.315460
v 46.082924 -83.167313 26.468842
v 51.149071 -61.192261 -109.606201
v 27.039803 -42.412338 -89.249817
v 0.243263 -23.352448 -59.014099
v 37.809807 -78.337372 -91.241699
v -3.880390 -62.684647 -58.252213
v 95.165054 -105.116150 -64.572861
v 121.032150 -104.438370 -83.375000
v 77.965683 -113.127518 -69.334564
v 66.575241 -124.045090 -94.016235
v 127.586349 -92.175674 -130.389832
v 86.676559 -73.359390 -145.990723
v 61.412682 -76.956985 -132.878784
v 58.888344 -102.181145 -123.940247
v 104.775162 -32.309235 -25.617935
v 116.524246 -64.988586 -60.039261
v 19.575142 -86.609634 19.557312
v 40.741875 -97.213493 -15.575790
v 6.839745 -46.336456 90.254311
v -3.746418 -58.922958 76.536461
v 8.265617 -73.358231 51.710815
v 21.254433 -21.411041 107.332962
v 14.864159 13.466293 107.123947
v -16.242992 53.670456 69.846046
v -14.707584 37.654312 91.651077
v -10.720509 23.940094 -22.074234
v 9.671913 51.130051 21.892014
v -28.079628 -3.539902 -27.858047
v -24.142864 -38.485382 -12.307678
v -13.231510 -68.330460 8.830215
v -25.478767 -58.867859 48.397141
v -46.277954 -14.568527 47.025742
v 87.186234 -97.584663 -147.849365
v 90.628433 -121.842270 -101.925446
v 90.628433 -121.842262 -101.925446
vt 0.612456 0.946961
vt 0.604256 0.940569
vt 0.604121 0.923890
vt 0.620748 0.921126
vt 0.636025 0.937632
vt 0.625098 0.957387
vt 0.651218 0.953477
vt 0.638859 0.968705
vt 0.668694 0.976547
vt 0.656676 0.978173
vt 0.651081 0.919721
vt 0.664193 0.938600
vt 0.672899 0.954957
vt 0.681424 0.920486
vt 0.687200 0.955883
vt 0.709731 0.939807
vt 0.706060 0.914996
vt 0.664147 0.909877
vt 0.638004 0.894830
vt 0.662123 0.888879
vt 0.682667 0.890242
vt 0.704227 0.890414
vt 0.683838 0.866371
vt 0.660007 0.861909
vt 0.703656 0.869780
vt 0.625219 0.885497
vt 0.637737 0.866673
vt 0.610300 0.881844
vt 0.624452 0.858640
vt 0.603517 0.904471
vt 0.616238 0.903381
vt 0.719702 0.870795
vt 0.721597 0.887773
vt 0.723596 0.910732
vt 0.724573 0.934683
vt 0.735275 0.872535
vt 0.741784 0.902078
vt 0.743275 0.930876
vt 0.763003 0.930980
vt 0.761643 0.900676
vt 0.638511 0.834319
vt 0.649645 0.835869
vt 0.667759 0.833267
vt 0.687007 0.840849
vt 0.704505 0.853268
vt 0.706035 0.844778
vt 0.715813 0.857879
vt 0.724194 0.848481
vt 0.730311 0.830860
vt 0.748439 0.869284
vt 0.623187 0.830579
vt 0.608489 0.854402
vt 0.588913 0.931949
vt 0.584895 0.910139
vt 0.591058 0.880391
vt 0.000000 0.000000
vt 1.000000 0.000000
vt 0.500000 1.000000
vt 0.000000 0.000000
vt 1.000000 0.000000
vt 0.500000 1.000000
vt 0.000000 0.000000
vt 1.000000 0.000000
vt 0.500000 1.000000
vt 0.000000 0.000000
vt 1.000000 0.000000
vt 0.500000 1.000000
vt 0.000000 0.000000
vt 1.000000 0.000000
vt 0.500000 1.000000
vt 0.000000 0.000000
vt 1.000000 0.000000
vt 0.500000 1.000000
vt 0.000000 0.000000
vt 1.000000 0.000000
vt 0.500000 1.000000
vt 0.000000 0.000000
vt 1.000000 0.000000
vt 0.500000 1.000000
vt 0.000000 0.000000
vt 1.000000 0.000000
vt 0.500000 1.000000
vt 0.000000 0.000000
vt 1.000000 0.000000
vt 0.500000 1.000000
vt 0.000000 0.000000
vt 1.000000 0.000000
vt 0.500000 1.000000
vt 0.000000 0.000000
vt 1.000000 0.000000
vt 0.500000 1.000000
vt 0.000000 0.000000
vt 1.000000 0.000000
vt 0.500000 1.000000
vt 0.000000 0.000000
vt 1.000000 0.000000
vt 0.500000 1.000000
vt 0.000000 0.000000
vt 1.000000 0.000000
vt 0.500000 1.000000
vt 0.000000 0.000000
vt 1.000000 0.000000
vt 1.000000 1.000000
vt 0.000000 1.000000
vt 0.000000 0.000000
vt 1.000000 0.000000
vt 0.500000 1.000000
vt 0.000000 0.000000
vt 1.000000 0.000000
vt 1.000000 1.000000
vt 0.000000 1.000000
vt 0.000000 0.000000
vt 1.000000 0.000000
vt 0.500000 1.000000
vt 0.000000 0.000000
vt 1.000000 0.000000
vt 0.500000 1.000000
vn 0.383656 -0.664193 0.641603
vn 0.198515 -0.799056 0.567540
vn -0.118998 -0.914380 0.386973
vn 0.501362 -0.590149 0.632740
vn 0.719185 -0.123363 0.683780
vn 0.646235 -0.196447 0.737421
vn 0.633276 0.553472 0.540953
vn 0.600956 0.532156 0.596374
vn 0.447667 0.788301 0.422110
vn 0.433827 0.769791 0.468205
vn 0.863221 0.147255 0.482871
vn 0.678135 0.683832 0.269271
vn 0.508642 0.834068 0.213574
vn 0.408340 0.862472 -0.298999
vn 0.299893 0.906983 -0.295712
vn -0.042607 0.773530 -0.632326
vn -0.075125 0.777718 -0.624108
vn 0.862345 0.484587 0.146755
vn 0.817553 -0.327387 0.473735
vn 0.960869 0.227272 0.158360
vn 0.532671 0.787716 -0.309460
vn -0.059035 0.775738 -0.628288
vn 0.730577 0.605286 -0.316046
vn 0.978415 0.067368 0.195360
vn 0.072141 0.723635 -0.686402
vn 0.307000 -0.884232 0.351973
vn 0.692617 -0.617755 0.372371
vn -0.094419 -0.986796 0.131600
vn -0.082814 -0.971297 0.222989
vn -0.232532 -0.935344 0.266572
vn 0.252295 -0.843267 0.474604
vn -0.639657 0.318500 -0.699569
vn -0.570166 0.280678 -0.772095
vn -0.656801 0.245031 -0.713142
vn -0.679307 0.235461 -0.695055
vn -0.781674 -0.366696 -0.504500
vn -0.810722 -0.330788 -0.483021
vn -0.897393 -0.295525 -0.327646
vn -0.655886 -0.754564 0.021129
vn -0.589591 -0.798395 -0.122262
vn -0.293292 -0.804417 0.516618
vn 0.528410 -0.594415 0.606179
vn 0.973747 0.036992 0.224609
vn 0.828946 0.456598 -0.323057
vn 0.132208 0.540244 -0.831058
vn -0.232398 -0.034814 -0.971998
vn -0.680944 0.202388 -0.703815
vn -0.836726 -0.267941 -0.477594
vn -0.746184 -0.664317 0.043511
vn -0.568197 -0.804274 -0.174056
vn -0.459651 -0.878917 0.127381
vn -0.685487 -0.189606 0.702963
vn -0.685487 -0.189606 0.702963
vn -0.685487 -0.189606 0.702963
vn -0.734075 -0.677947 0.039017
vn -0.734075 -0.677947 0.039017
vn -0.734075 -0.677947 0.039017
vn -0.668071 -0.117137 0.734820
vn -0.668071 -0.117137 0.734820
vn -0.668071 -0.117137 0.734820
vn -0.668051 -0.117998 0.734700
vn -0.668051 -0.117998 0.734700
vn -0.668051 -0.117998 0.734700
vn -0.908433 0.303820 0.287128
vn -0.908433 0.303820 0.287128
vn -0.908433 0.303820 0.287128
vn -0.609807 -0.268539 0.745669
vn -0.609807 -0.268539 0.745669
vn -0.609807 -0.268539 0.745669
vn -0.768074 0.639171 -0.039033
vn -0.768074 0.639171 -0.039033
vn -0.768074 0.639171 -0.039033
vn -0.827654 0.548171 -0.120404
vn -0.827654 0.548171 -0.120404
vn -0.827654 0.548171 -0.120404
vn -0.939469 -0.221979 -0.261003
vn -0.939469 -0.221979 -0.261003
vn -0.939469 -0.221979 -0.261003
vn -0.887052 -0.434608 -0.155739
vn -0.887052 -0.434608 -0.155739
vn -0.887052 -0.434608 -0.155739
vn -0.105732 -0.018864 0.994216
vn -0.105732 -0.018864 0.994216
vn -0.105732 -0.018864 0.994216
vn -0.889281 -0.422921 -0.174118
vn -0.889281 -0.422921 -0.174118
vn -0.889281 -0.422921 -0.174118
vn -0.760536 0.480708 -0.436468
vn -0.760536 0.480708 -0.436468
vn -0.760536 0.480708 -0.436468
vn 0.286608 -0.886889 0.362330
vn 0.286608 -0.886889 0.362330
vn 0.286608 -0.886889 0.362330
vn 0.311550 -0.880792 0.356571
vn 0.311550 -0.880791 0.356571
vn 0.311550 -0.880792 0.356571
vn 0.190833 -0.927274 0.322097
vn 0.190833 -0.927274 0.322097
vn 0.190833 -0.927274 0.322097
vn 0.190833 -0.927274 0.322097
vn 0.553755 -0.821328 -0.137026
vn 0.553755 -0.821328 -0.137026
vn 0.553755 -0.821328 -0.137026
vn -0.111845 -0.815838 -0.567361
vn -0.111845 -0.815838 -0.567361
vn -0.111845 -0.815838 -0.567361
vn -0.111845 -0.815838 -0.567361
vn 0.310878 -0.830592 -0.462031
vn 0.310878 -0.830592 -0.462031
vn 0.310878 -0.830592 -0.462031
vn -0.231519 -0.867262 -0.440745
vn -0.231519 -0.867262 -0.440745
vn -0.231519 -0.867262 -0.440745
s 1
g legLtop
usemtl lambert5SG
f 38/1/1 39/2/2 40/3/3 1/4/4
f 1/4/4 2/5/5 41/6/6 38/1/1
f 2/5/5 3/7/7 42/8/8 41/6/6
f 3/7/7 43/9/9 44/10/10 42/8/8
f 5/11/11 4/12/12 3/7/7 2/5/5
f 43/9/9 3/7/7 4/12/12 6/13/13
f 6/13/13 4/12/12 7/14/14 46/15/15
f 45/16/16 46/15/15 7/14/14 8/17/17
f 5/11/11 9/18/18 7/14/14 4/12/12
f 1/4/4 10/19/19 5/11/11 2/5/5
f 9/18/18 34/20/20 11/21/21 7/14/14
f 12/22/22 8/17/17 7/14/14 11/21/21
f 14/23/23 11/21/21 34/20/20 35/24/24
f 15/25/25 12/22/22 11/21/21 14/23/23
f 10/19/19 16/26/26 13/27/27
f 37/28/28 19/29/29 13/27/27 16/26/26
f 36/30/30 37/28/28 16/26/26 20/31/31
f 1/4/4 40/3/3 36/30/30 20/31/31
f 16/26/26 10/19/19 1/4/4 20/31/31
f 15/25/25 21/32/32 22/33/33 12/22/22
f 22/33/33 23/34/34 8/17/17 12/22/22
f 47/35/35 45/16/16 8/17/17 23/34/34
f 21/32/32 24/36/36 22/33/33
f 25/37/37 23/34/34 22/33/33 24/36/36
f 48/38/38 47/35/35 23/34/34 25/37/37
f 49/39/39 48/38/38 25/37/37 18/40/40
f 28/41/41 26/42/42 13/27/27 19/29/29
f 14/23/23 35/24/24 27/43/43 30/44/44
f 30/44/44 31/45/45 15/25/25 14/23/23
f 30/44/44 52/46/46 31/45/45
f 32/47/47 21/32/32 15/25/25 31/45/45
f 32/47/47 33/48/48 24/36/36 21/32/32
f 52/46/46 33/48/48 32/47/47 31/45/45
f 29/49/49 17/50/50 24/36/36 33/48/48
f 29/51/49 28/41/41 19/29/29 17/52/50
f 18/40/40 25/37/37 24/36/36 17/50/50
f 34/20/20 10/19/19 13/27/27 35/24/24
f 27/43/43 35/24/24 13/27/27 26/42/42
f 36/30/30 40/3/3 50/53/51 49/54/39
f 49/54/39 18/55/40 37/28/28 36/30/30
f 18/55/40 17/52/50 19/29/29 37/28/28
f 6/13/13 46/15/15 43/9/9
f 9/18/18 5/11/11 10/19/19 34/20/20
s off
f 39/56/52 38/57/53 51/58/54
f 40/59/55 39/60/56 51/61/57
f 38/62/58 41/63/59 51/64/60
f 41/65/61 42/66/62 51/67/63
f 44/68/64 43/69/65 51/70/66
f 42/71/67 44/72/68 51/73/69
f 46/74/70 45/75/71 51/76/72
f 45/77/73 47/78/74 51/79/75
f 47/80/76 48/81/77 51/82/78
f 48/83/79 49/84/80 51/85/81
f 50/86/82 40/87/83 51/88/84
f 49/89/85 50/90/86 51/91/87
f 43/92/88 46/93/89 51/94/90
f 27/95/91 26/96/92 53/97/93
f 26/98/94 28/99/95 53/100/96
f 28/101/97 29/102/98 54/103/99 53/104/100
f 30/105/101 27/106/102 53/107/103
f 29/108/104 33/109/105 53/110/106 54/111/107
f 52/112/108 30/113/109 53/114/110
f 33/115/111 52/116/112 53/117/113
