# This file uses centimeters as units for non-parametric coordinates.

mtllib armLtop.mtl
g default
v 10.031738 -48.572372 3.361069
v 29.708069 -30.657501 25.497955
v 45.690720 -6.179535 34.310822
v 37.897217 27.628052 28.210495
v 26.762833 42.097672 -22.714691
v 74.350128 21.350800 -19.762390
v 44.990494 19.847717 -58.329140
v 80.892883 -8.193558 0.332550
v 69.717224 -34.664597 -3.538925
v 56.407043 -49.713211 -19.378067
v 42.439484 -49.729935 -44.537498
v 36.823212 -24.738144 -71.463165
v -39.211151 -56.868530 56.009567
v -18.347290 -62.035843 2.331589
v -9.511505 -23.952026 68.868668
v 2.464203 15.494629 65.937912
v -6.671677 -44.278183 -38.400238
v 5.301163 42.236954 45.592377
v -1.115509 52.065369 4.964935
v 10.892380 24.497223 -45.439713
v 7.852829 -13.069031 -52.951729
v -41.651482 -5.019730 17.739044
v 108.858505 9.067093 -46.684608
v 88.045670 5.989120 -80.376755
v 77.493637 -30.652557 -88.834000
v 89.831558 -54.705048 -63.998734
v 101.754807 -43.461487 -28.493851
v 111.971390 -16.673553 -25.261528
v 90.524475 -56.757751 -38.624863
v 121.603012 -26.742027 -53.182049
v 121.603004 -26.742027 -53.182049
v 121.603004 -26.742025 -53.182049
v 121.603012 -26.742025 -53.182049
vt 0.011740 0.151408
vt 0.005374 0.136112
vt 0.008106 0.128630
vt 0.019172 0.134238
vt 0.029668 0.139489
vt 0.021907 0.151296
vt 0.040748 0.149458
vt 0.030548 0.156879
vt 0.112464 0.178229
vt 0.095785 0.171835
vt 0.110551 0.169767
vt 0.038898 0.161676
vt 0.056603 0.155807
vt 0.050786 0.166868
vt 0.067388 0.162411
vt 0.065923 0.147034
vt 0.049753 0.136932
vt 0.038726 0.128227
vt 0.030449 0.121130
vt 0.023145 0.115231
vt 0.098298 0.149562
vt 0.109071 0.149199
vt 0.083812 0.148848
vt 0.081892 0.164953
vt 0.069949 0.133198
vt 0.056535 0.126356
vt 0.084580 0.133725
vt 0.098888 0.127951
vt 0.041710 0.108219
vt 0.047642 0.117519
vt 0.037246 0.102523
vt 0.107865 0.128756
vt 0.000000 0.000000
vt 1.000000 0.000000
vt 0.500000 1.000000
vt 0.000000 0.000000
vt 1.000000 0.000000
vt 0.500000 1.000000
vt 0.000000 0.000000
vt 1.000000 0.000000
vt 0.500000 1.000000
vt 0.000000 0.000000
vt 1.000000 0.000000
vt 0.500000 1.000000
vt 0.000000 0.000000
vt 1.000000 0.000000
vt 0.500000 1.000000
vt 0.000000 0.000000
vt 1.000000 0.000000
vt 0.500000 1.000000
vt 0.000000 0.000000
vt 1.000000 0.000000
vt 0.500000 1.000000
vt 0.000000 0.000000
vt 1.000000 0.000000
vt 0.500000 1.000000
vt 0.000000 0.000000
vt 1.000000 0.000000
vt 0.500000 1.000000
vt 0.000000 0.000000
vt 1.000000 0.000000
vt 1.000000 1.000000
vt 0.000000 1.000000
vt 0.000000 0.000000
vt 1.000000 0.000000
vt 1.000000 1.000000
vt 0.000000 1.000000
vt 0.000000 0.000000
vt 1.000000 0.000000
vt 0.500000 1.000000
vt 0.000000 0.000000
vt 1.000000 0.000000
vt 1.000000 1.000000
vt 0.000000 1.000000
vt 0.000000 0.000000
vt 1.000000 0.000000
vt 1.000000 1.000000
vt 0.000000 1.000000
vt 0.000000 0.000000
vt 1.000000 0.000000
vt 0.500000 1.000000
vt 0.000000 0.000000
vt 1.000000 0.000000
vt 0.500000 1.000000
vn -0.288939 -0.772538 0.565420
vn -0.298607 -0.948376 -0.106848
vn 0.282234 -0.936758 0.206949
vn 0.464600 -0.709987 0.529213
vn 0.667580 -0.110536 0.736287
vn 0.191020 -0.261990 0.945977
vn 0.634061 0.623353 0.457601
vn 0.098611 0.294716 0.950483
vn -0.588487 -0.602388 -0.539270
vn -0.133722 0.880341 0.455102
vn 0.318261 0.942065 -0.105946
vn -0.325925 0.942640 -0.072136
vn -0.602905 0.422116 -0.676996
vn -0.026293 0.789826 -0.612767
vn 0.509399 0.842167 0.176826
vn 0.690634 0.120506 0.713094
vn 0.420371 -0.611235 0.670581
vn 0.061486 -0.963832 0.259320
vn -0.236107 -0.903821 -0.356876
vn -0.401860 -0.190467 -0.895673
vn -0.595548 -0.000428 -0.803319
vn -0.086666 0.758088 -0.646367
vn 0.410756 0.905265 0.108510
vn -0.405399 -0.228304 -0.885172
vn -0.281684 -0.875126 -0.393458
vn 0.418630 -0.532107 0.735943
vn 0.653926 0.199660 0.729737
vn 0.001862 -0.965490 0.260434
vn -0.903188 -0.281620 -0.323946
vn -0.700743 0.402028 0.589349
vn -0.764640 0.275427 0.582637
vn -0.890604 -0.263936 -0.370355
vn -0.745468 0.451868 0.489992
vn -0.757527 0.597009 0.264069
vn -0.777534 0.454989 -0.434082
vn -0.802503 0.145719 -0.578580
vn 0.775297 0.368945 -0.512634
vn 0.775297 0.368945 -0.512634
vn 0.775297 0.368945 -0.512634
vn 0.775297 0.368945 -0.512634
vn 0.628688 -0.001559 -0.777656
vn 0.628688 -0.001559 -0.777656
vn 0.628688 -0.001559 -0.777656
vn 0.628688 -0.001559 -0.777656
vn 0.595320 -0.408836 -0.691699
vn 0.595320 -0.408836 -0.691699
vn 0.595320 -0.408836 -0.691699
vn 0.830438 -0.367266 0.418913
vn 0.830438 -0.367266 0.418913
vn 0.830438 -0.367266 0.418913
vn 0.830438 -0.367266 0.418913
vn 0.931604 0.292378 0.215937
vn 0.931604 0.292378 0.215937
vn 0.931604 0.292378 0.215937
vn 0.931604 0.292378 0.215937
vn 0.716607 -0.688806 0.109644
vn 0.716607 -0.688806 0.109644
vn 0.716607 -0.688806 0.109644
vn 0.673483 -0.735091 -0.077859
vn 0.673483 -0.735091 -0.077859
vn 0.673483 -0.735091 -0.077859
s 1
g armLtop
usemtl lambert5SG
f 13/1/1 14/2/2 1/3/3 2/4/4
f 3/5/5 15/6/6 13/1/1 2/4/4
f 4/7/7 16/8/8 15/6/6 3/5/5
f 14/9/2 17/10/9 1/11/3
f 18/12/10 16/8/8 4/7/7
f 4/7/7 5/13/11 19/14/12 18/12/10
f 20/15/13 19/14/12 5/13/11
f 7/16/14 5/13/11 4/7/7 6/17/15
f 7/16/14 20/15/13 5/13/11
f 8/18/16 6/17/15 4/7/7 3/5/5
f 2/4/4 9/19/17 8/18/16 3/5/5
f 1/3/3 10/20/18 9/19/17 2/4/4
f 11/21/19 10/22/18 1/11/3 17/10/9
f 12/23/20 11/21/19 17/10/9 21/24/21
f 21/24/21 20/15/13 7/16/14 12/23/20
f 24/25/22 7/16/14 6/17/15 23/26/23
f 25/27/24 12/23/20 7/16/14 24/25/22
f 25/27/24 26/28/25 11/21/19 12/23/20
f 27/29/26 28/30/27 8/18/16 9/19/17
f 23/26/23 6/17/15 8/18/16 28/30/27
f 29/31/28 27/29/26 9/19/17 10/20/18
f 26/28/25 29/32/28 10/22/18 11/21/19
f 14/33/2 13/34/1 22/35/29
f 13/36/1 15/37/6 22/38/30
f 15/39/6 16/40/8 22/41/31
f 17/42/9 14/43/2 22/44/32
f 16/45/8 18/46/10 22/47/33
f 18/48/10 19/49/12 22/50/34
f 19/51/12 20/52/13 22/53/35
f 21/54/21 17/55/9 22/56/36
f 20/57/13 21/58/21 22/59/36
s off
f 24/60/37 23/61/38 30/62/39 31/63/40
f 25/64/41 24/65/42 31/66/43 32/67/44
f 26/68/45 25/69/46 32/70/47
f 28/71/48 27/72/49 32/73/50 33/74/51
f 23/75/52 28/76/53 33/77/54 30/78/55
f 27/79/56 29/80/57 32/81/58
f 29/82/59 26/83/60 32/84/61
