# This file uses centimeters as units for non-parametric coordinates.

mtllib tail.mtl
g default
v 30.100721 -3.131577 -114.180908
v 17.201311 21.921722 -122.797241
v 22.861322 -10.254730 -229.759888
v 12.436138 9.579254 -235.765930
v 18.584948 -10.007202 -344.448120
v 1.710759 6.707077 -355.241394
v 15.414184 6.145248 -461.290405
v 2.638273 15.594833 -459.060913
v 16.775656 23.040466 -561.581848
v 3.654380 33.465927 -559.419434
v 14.966460 37.564987 -659.000793
v 4.867218 47.398453 -660.808533
v 12.632399 61.583298 -756.561707
v 5.941432 72.981552 -758.718079
v 7.147113 88.678024 -848.625549
v 26.394604 -27.732956 -103.650726
v 22.797491 -32.677963 -228.833374
v 16.664244 -32.194794 -349.414246
v 18.203924 -11.625580 -463.043396
v 18.295631 5.514648 -563.999756
v 14.783171 22.837799 -659.376892
v 0.153447 -39.393127 -89.640167
v 0.777136 -53.661377 -228.033569
v 1.706300 -48.811035 -357.231750
v 2.679020 -29.119492 -463.521606
v 3.680607 -10.021774 -562.129639
v 4.899533 15.211914 -662.994812
v 6.218203 46.902969 -760.060486
v 0.823679 11.894608 -237.729065
v 0.272013 35.572464 -105.513702
v 5.440642 75.174881 -41.528900
v 0.013682 78.276474 -27.936310
v 7.080662 54.657547 -27.750153
v 0.094809 71.543930 -59.228516
v 0.082465 53.231186 -51.677582
v 0.111217 104.361771 -74.593323
v 5.006836 41.012802 -171.509979
v 0.417591 43.398117 -158.764221
v 0.361696 27.779007 -142.282532
v 6.318904 23.869476 -160.011627
v 0.522797 22.222794 -179.261169
v 0.545787 36.745804 -184.872162
v 0.582895 65.456406 -198.453308
v 4.107157 20.468628 -328.693848
v 1.413669 21.501480 -320.543579
v 1.320708 9.205109 -309.936462
v 4.900754 9.170898 -322.982605
v 1.551350 18.974960 -336.126282
v 1.526325 8.972626 -333.085266
v 1.594981 36.929428 -342.969849
v 2.830740 20.003845 -480.582825
v 6.761305 22.397003 -495.293823
v 5.894643 35.559189 -498.943176
v 2.881493 32.987015 -487.003052
v 3.101120 25.132431 -508.774414
v 3.088901 35.535568 -507.726440
v 3.068297 59.677597 -506.593689
v 7.430778 71.642075 -700.211182
v 5.119280 67.935654 -689.583679
v 5.096311 53.465500 -682.757080
v 7.564841 59.172989 -698.995789
v 5.358296 72.138809 -709.097229
v 5.419678 62.700333 -709.752258
v 5.235389 91.588821 -707.776001
v -16.688145 21.900986 -122.921387
v -29.687746 -3.167648 -114.384155
v -10.794525 9.517838 -235.894897
v -21.333969 -10.343857 -230.011749
v -15.391773 -10.027771 -344.722168
v -10.124949 6.052856 -461.526184
v -0.831503 22.395050 -495.370911
v -9.423956 23.043793 -561.863953
v -5.256256 37.529617 -659.249878
v 3.016395 59.156784 -699.054993
v -0.586523 61.453354 -756.762390
v -26.016603 -27.768814 -103.840027
v -21.251659 -32.692505 -229.093719
v -13.412495 -32.212448 -349.655762
v -12.890057 -11.686951 -463.346497
v -10.881635 5.505035 -564.317993
v -5.050681 22.817337 -659.614258
v -7.035166 54.652451 -27.777771
v -5.464656 23.861832 -160.060791
v -5.344584 75.170639 -41.552368
v -4.052669 41.007065 -171.547791
v -2.056394 9.166931 -323.037048
v -1.137508 20.464859 -328.738892
v 0.102336 35.557541 -499.002319
v 3.059506 71.624100 -700.268860
v 19.579447 37.714249 -24.608093
v 36.476501 9.838165 -1.607056
v 21.284334 -24.452377 -17.627625
v 0.068707 -37.360336 16.904205
v -0.017321 59.476151 -8.228210
v -36.159122 10.687088 -1.304016
v -19.567257 37.698380 -24.685944
v -21.176043 -24.313324 -17.651001
v 0.061157 8.660995 15.086487
v 0.061155 8.660995 15.086456
vt 0.789978 0.634348
vt 0.777707 0.587155
vt 0.792244 0.572310
vt 0.803309 0.628530
vt 0.797686 0.690407
vt 0.808096 0.686168
vt 0.801669 0.739745
vt 0.814715 0.743059
vt 0.804471 0.750647
vt 0.812045 0.802306
vt 0.819859 0.801933
vt 0.814708 0.820613
vt 0.824334 0.852458
vt 0.816178 0.853423
vt 0.813647 0.827655
vt 0.826301 0.903928
vt 0.832587 0.900936
vt 0.829867 0.923759
vt 0.840726 0.950255
vt 0.835459 0.954082
vt 0.829899 0.929501
vt 0.851239 0.996790
vt 0.813273 0.579075
vt 0.815366 0.622646
vt 0.818774 0.684763
vt 0.825684 0.743593
vt 0.828581 0.800659
vt 0.832846 0.851112
vt 0.839321 0.898496
vt 0.825817 0.559774
vt 0.829252 0.614996
vt 0.833295 0.683567
vt 0.836864 0.745802
vt 0.839885 0.798580
vt 0.842708 0.847867
vt 0.845622 0.898747
vt 0.848479 0.948611
vt 0.778261 0.627882
vt 0.767990 0.602900
vt 0.767499 0.591328
vt 0.792203 0.692486
vt 0.786246 0.663730
vt 0.787234 0.653696
vt 0.157884 0.899418
vt 0.131314 0.892885
vt 0.140406 0.880367
vt 0.170493 0.878665
vt 0.137155 0.917905
vt 0.117238 0.907547
vt 0.082907 0.883614
vt 0.710141 0.707168
vt 0.686163 0.699444
vt 0.696698 0.687335
vt 0.724403 0.687366
vt 0.691157 0.723694
vt 0.674646 0.713110
vt 0.642979 0.687276
vt 0.738466 0.690621
vt 0.744260 0.672525
vt 0.753640 0.680422
vt 0.753665 0.704859
vt 0.727458 0.678775
vt 0.735463 0.664737
vt 0.753604 0.640662
vt 0.739869 0.612573
vt 0.762360 0.612573
vt 0.747527 0.632014
vt 0.727195 0.626475
vt 0.732240 0.648263
vt 0.719154 0.638288
vt 0.690067 0.612577
vt 0.710841 0.577393
vt 0.691004 0.568553
vt 0.705597 0.556290
vt 0.733484 0.556301
vt 0.695413 0.590709
vt 0.681381 0.581098
vt 0.655383 0.556293
vt 0.801882 0.734332
vt 0.798984 0.728212
vt 0.827620 0.915312
vt 0.812517 0.813256
vt 0.782440 0.645772
vt 0.760677 0.584120
vt 0.870630 0.629739
vt 0.856685 0.625530
vt 0.861029 0.569539
vt 0.877406 0.582300
vt 0.869442 0.686150
vt 0.858618 0.683177
vt 0.871126 0.735619
vt 0.869588 0.746777
vt 0.858548 0.740453
vt 0.867961 0.798981
vt 0.860158 0.799536
vt 0.867407 0.817479
vt 0.869265 0.824347
vt 0.869692 0.850239
vt 0.861481 0.850248
vt 0.865404 0.901601
vt 0.858819 0.899375
vt 0.864126 0.921720
vt 0.864750 0.927427
vt 0.862035 0.952500
vt 0.856367 0.949324
vt 0.840735 0.578056
vt 0.843975 0.621050
vt 0.847853 0.683044
vt 0.847715 0.742284
vt 0.851349 0.799305
vt 0.852873 0.849921
vt 0.851853 0.897750
vt 0.881549 0.622060
vt 0.888098 0.585082
vt 0.888911 0.596454
vt 0.875125 0.687563
vt 0.875586 0.648574
vt 0.877725 0.658387
vt 0.155627 0.859467
vt 0.129960 0.868952
vt 0.132946 0.843432
vt 0.114325 0.855968
vt 0.710184 0.667528
vt 0.686195 0.675204
vt 0.674699 0.661516
vt 0.691224 0.650963
vt 0.768835 0.690592
vt 0.763006 0.672505
vt 0.779820 0.678720
vt 0.771788 0.664703
vt 0.727193 0.598672
vt 0.747530 0.593134
vt 0.719149 0.586860
vt 0.732238 0.576885
vt 0.710860 0.535193
vt 0.691010 0.544021
vt 0.695418 0.521874
vt 0.681372 0.531483
vt 0.872474 0.723847
vt 0.870296 0.730268
vt 0.865394 0.913064
vt 0.868743 0.809912
vt 0.879443 0.640197
vt 0.894086 0.577231
vt 0.000000 0.000000
vt 1.000000 0.000000
vt 1.000000 1.000000
vt 0.000000 1.000000
vt 0.000000 0.000000
vt 1.000000 0.000000
vt 1.000000 1.000000
vt 0.000000 1.000000
vt 0.000000 0.000000
vt 1.000000 0.000000
vt 0.500000 1.000000
vt 0.000000 0.000000
vt 1.000000 0.000000
vt 0.500000 1.000000
vt 0.000000 0.000000
vt 1.000000 0.000000
vt 1.000000 1.000000
vt 0.000000 1.000000
vt 0.000000 0.000000
vt 1.000000 0.000000
vt 1.000000 1.000000
vt 0.000000 1.000000
vt 0.000000 0.000000
vt 1.000000 0.000000
vt 0.500000 1.000000
vt 0.000000 0.000000
vt 1.000000 0.000000
vt 0.500000 1.000000
vn 0.842653 0.528739 -0.101834
vn 0.866021 0.486542 -0.115258
vn 0.994656 0.092736 -0.045376
vn 0.987595 0.145903 -0.058037
vn 0.785596 0.613860 -0.077560
vn 0.977018 0.204849 -0.058929
vn 0.002510 0.933818 -0.357739
vn 0.970817 0.239391 -0.014349
vn -0.002725 0.996474 0.083856
vn -0.003118 0.993037 0.117762
vn 0.934808 0.352135 0.046201
vn 0.785579 0.605405 0.127869
vn 0.924280 0.378548 0.049071
vn -0.002288 0.991597 0.129349
vn -0.001111 0.996124 0.087953
vn -0.003057 0.984818 0.173565
vn 0.965022 0.262044 0.008080
vn 0.898354 0.426493 0.105181
vn 0.998005 -0.021236 -0.059463
vn -0.012333 0.984917 0.172589
vn -0.009504 0.993259 0.115527
vn 0.018032 -0.507349 -0.861552
vn 0.764885 -0.643441 0.030577
vn 0.807270 -0.589592 0.026395
vn 0.862132 -0.506584 -0.010035
vn 0.904983 -0.422879 -0.046694
vn 0.935303 -0.348551 -0.060998
vn 0.929318 -0.360757 -0.078884
vn 0.915729 -0.383614 -0.119503
vn -0.003190 -0.999090 0.042525
vn -0.001589 -0.998688 0.051185
vn -0.000221 -0.999883 0.015275
vn 0.001215 -0.993379 -0.114879
vn 0.002612 -0.983642 -0.180115
vn 0.002636 -0.979401 -0.201910
vn 0.003596 -0.966202 -0.257762
vn 0.016636 -0.892222 -0.451290
vn 0.000157 0.981833 -0.189749
vn 0.000242 0.888876 -0.458147
vn 0.880356 0.467216 -0.081752
vn -0.001796 0.995706 -0.092554
vn -0.000869 0.965074 -0.261976
vn 0.687149 0.722776 -0.073622
vn 0.991724 0.128029 -0.009626
vn -0.001749 0.751125 0.660158
vn -0.001524 0.827115 0.562031
vn 0.002175 -0.396839 -0.917886
vn 0.001255 0.542481 -0.840067
vn 0.991439 0.130399 -0.006780
vn -0.003365 0.751657 0.659546
vn -0.000548 0.995501 -0.094748
vn 0.004291 -0.396336 -0.918095
vn 0.002161 0.621815 -0.783161
vn 0.836281 0.546463 -0.044863
vn 0.992254 0.123591 0.012523
vn -0.006193 0.681586 0.731712
vn -0.002256 0.999961 -0.008497
vn 0.008379 -0.315725 -0.948814
vn 0.003489 0.855492 -0.517804
vn -0.009207 0.488758 0.872371
vn -0.005825 0.955683 0.294339
vn 0.994146 0.104707 0.026641
vn 0.010263 0.030466 -0.999483
vn -0.001395 0.999177 0.040551
vn 0.994708 0.088662 0.051905
vn -0.013327 0.370465 0.928751
vn -0.006664 0.933277 0.359096
vn 0.013032 0.027288 -0.999543
vn -0.000643 0.982070 -0.188514
vn -0.841243 0.529750 -0.108053
vn -0.987503 0.144132 -0.063753
vn -0.994755 0.090763 -0.047175
vn -0.865373 0.486686 -0.119441
vn -0.785498 0.612746 -0.086804
vn -0.976349 0.204481 -0.070217
vn -0.970362 0.239823 -0.029708
vn -0.935412 0.352410 0.028497
vn -0.790523 0.602139 0.111812
vn -0.925342 0.378095 0.028035
vn -0.965901 0.258376 -0.016624
vn -0.904386 0.418906 0.081258
vn -0.995506 -0.035712 -0.087712
vn -0.769519 -0.637922 0.029942
vn -0.808966 -0.587438 0.022142
vn -0.861204 -0.507862 -0.020117
vn -0.903753 -0.423667 -0.061136
vn -0.933720 -0.349162 -0.079078
vn -0.927281 -0.360868 -0.099617
vn -0.911342 -0.386156 -0.142618
vn -0.880233 0.466592 -0.086499
vn -0.687945 0.721335 -0.080048
vn -0.991789 0.127073 -0.014397
vn -0.991468 0.129373 -0.015933
vn -0.836071 0.545679 -0.056744
vn -0.992334 0.123478 -0.005119
vn -0.994539 0.104138 0.006859
vn -0.996630 0.078137 0.024962
vn 0.276253 0.705746 0.652386
vn 0.276253 0.705746 0.652386
vn 0.276253 0.705746 0.652386
vn 0.276253 0.705746 0.652386
vn 0.369187 -0.522607 0.768494
vn 0.369187 -0.522607 0.768494
vn 0.369187 -0.522607 0.768494
vn 0.369187 -0.522607 0.768494
vn 0.848326 0.021036 0.529057
vn 0.848326 0.021036 0.529057
vn 0.848326 0.021036 0.529057
vn 0.774389 0.264837 0.574616
vn 0.774389 0.264837 0.574616
vn 0.774389 0.264837 0.574616
vn -0.253504 0.717415 0.648885
vn -0.253504 0.717415 0.648885
vn -0.253504 0.717415 0.648885
vn -0.253504 0.717415 0.648885
vn -0.376247 -0.519406 0.767239
vn -0.376247 -0.519406 0.767239
vn -0.376247 -0.519406 0.767239
vn -0.376247 -0.519406 0.767239
vn -0.848177 0.020767 0.529306
vn -0.848177 0.020767 0.529306
vn -0.848177 0.020767 0.529306
vn -0.775553 0.262265 0.574226
vn -0.775553 0.262265 0.574226
vn -0.775553 0.262265 0.574226
s 1
g tail
usemtl lambert5SG
f 2/1/1 90/2/2 91/3/3 1/4/4
f 4/5/5 2/1/1 1/4/4 3/6/6
f 49/7/7 5/8/8 6/9/9
f 8/10/10 6/9/9 5/8/8 7/11/11
f 52/12/12 9/13/13 10/14/14 55/15/15
f 12/16/16 10/14/14 9/13/13 11/17/17
f 61/18/18 13/19/19 14/20/20 63/21/21
f 13/19/19 15/22/22 14/20/20
f 92/23/23 16/24/24 1/4/4 91/3/3
f 16/24/24 17/25/25 3/6/6 1/4/4
f 17/25/25 18/26/26 5/8/8 3/6/6
f 18/26/26 19/27/27 7/11/11 5/8/8
f 19/27/27 20/28/28 9/13/13 7/11/11
f 20/28/28 21/29/29 11/17/17 9/13/13
f 93/30/30 22/31/31 16/24/24 92/23/23
f 22/31/31 23/32/32 17/25/25 16/24/24
f 23/32/32 24/33/33 18/26/26 17/25/25
f 24/33/33 25/34/34 19/27/27 18/26/26
f 20/28/28 19/27/27 25/34/34 26/35/35
f 26/35/35 27/36/36 21/29/29 20/28/28
f 21/29/29 28/37/37 13/19/19 11/17/17
f 28/37/37 15/22/22 13/19/19
f 27/36/36 28/37/37 21/29/29
f 30/38/38 35/39/39 33/40/40 90/2/2
f 29/41/41 41/42/42 40/43/43 4/5/5
f 33/44/40 31/45/44 32/46/45 94/47/46
f 35/48/39 34/49/47 31/45/44 33/44/40
f 36/50/48 32/46/45 31/45/44
f 36/50/48 31/45/44 34/49/47
f 40/51/43 37/52/49 38/53/50 39/54/51
f 37/52/49 40/51/43 41/55/42 42/56/52
f 37/52/49 43/57/53 38/53/50
f 43/57/53 37/52/49 42/56/52
f 47/58/54 44/59/55 45/60/56 46/61/57
f 49/62/7 48/63/58 44/59/55 47/58/54
f 50/64/59 45/60/56 44/59/55
f 50/64/59 44/59/55 48/63/58
f 54/65/60 51/66/61 52/67/12 53/68/62
f 53/68/62 52/67/12 55/69/15 56/70/63
f 57/71/64 54/65/60 53/68/62
f 56/70/63 57/71/64 53/68/62
f 61/72/18 58/73/65 59/74/66 60/75/67
f 63/76/21 62/77/68 58/73/65 61/72/18
f 58/73/65 64/78/69 59/74/66
f 62/77/68 64/78/69 58/73/65
f 4/5/5 47/79/54 46/80/57 29/41/41
f 11/17/17 61/18/18 60/81/67 12/16/16
f 11/17/17 13/19/19 61/18/18
f 7/11/11 52/12/12 51/82/61 8/10/10
f 7/11/11 9/13/13 52/12/12
f 3/6/6 5/8/8 47/79/54 4/5/5
f 4/5/5 40/43/43 2/1/1
f 2/1/1 40/43/43 39/83/51 30/38/38
f 90/2/2 33/40/40 94/84/46
f 30/38/38 90/2/2 2/1/1
f 47/79/54 5/8/8 49/7/7
f 65/85/70 66/86/71 95/87/72 96/88/73
f 67/89/74 68/90/75 66/86/71 65/85/70
f 49/91/7 6/92/9 69/93/76
f 8/94/10 70/95/77 69/93/76 6/92/9
f 71/96/78 55/97/15 10/98/14 72/99/79
f 12/100/16 73/101/80 72/99/79 10/98/14
f 74/102/81 63/103/21 14/104/20 75/105/82
f 75/105/82 14/104/20 15/22/22
f 97/106/83 95/87/72 66/86/71 76/107/84
f 76/107/84 66/86/71 68/90/75 77/108/85
f 77/108/85 68/90/75 69/93/76 78/109/86
f 78/109/86 69/93/76 70/95/77 79/110/87
f 79/110/87 70/95/77 72/99/79 80/111/88
f 80/111/88 72/99/79 73/101/80 81/112/89
f 93/30/30 97/106/83 76/107/84 22/31/31
f 22/31/31 76/107/84 77/108/85 23/32/32
f 23/32/32 77/108/85 78/109/86 24/33/33
f 24/33/33 78/109/86 79/110/87 25/34/34
f 80/111/88 26/35/35 25/34/34 79/110/87
f 26/35/35 80/111/88 81/112/89 27/36/36
f 81/112/89 73/101/80 75/105/82 28/37/37
f 28/37/37 75/105/82 15/22/22
f 27/36/36 81/112/89 28/37/37
f 30/113/38 96/88/73 82/114/90 35/115/39
f 29/116/41 67/89/74 83/117/91 41/118/42
f 82/119/90 94/47/46 32/46/45 84/120/92
f 35/121/39 82/119/90 84/120/92 34/122/47
f 36/50/48 84/120/92 32/46/45
f 36/50/48 34/122/47 84/120/92
f 83/123/91 39/54/51 38/53/50 85/124/93
f 85/124/93 42/125/52 41/126/42 83/123/91
f 85/124/93 38/53/50 43/57/53
f 43/57/53 42/125/52 85/124/93
f 86/127/94 46/61/57 45/60/56 87/128/95
f 49/129/7 86/127/94 87/128/95 48/130/58
f 50/64/59 87/128/95 45/60/56
f 50/64/59 48/130/58 87/128/95
f 54/65/60 88/131/96 71/132/78 51/66/61
f 88/131/96 56/133/63 55/134/15 71/132/78
f 57/71/64 88/131/96 54/65/60
f 56/133/63 88/131/96 57/71/64
f 74/135/81 60/75/67 59/74/66 89/136/97
f 63/137/21 74/135/81 89/136/97 62/138/68
f 89/136/97 59/74/66 64/78/69
f 62/138/68 89/136/97 64/78/69
f 67/89/74 29/116/41 46/139/57 86/140/94
f 73/101/80 12/100/16 60/141/67 74/102/81
f 73/101/80 74/102/81 75/105/82
f 70/95/77 8/94/10 51/142/61 71/96/78
f 70/95/77 71/96/78 72/99/79
f 68/90/75 67/89/74 86/140/94 69/93/76
f 67/89/74 65/85/70 83/117/91
f 65/85/70 30/113/38 39/143/51 83/117/91
f 96/88/73 94/144/46 82/114/90
f 30/113/38 65/85/70 96/88/73
f 86/140/94 49/91/7 69/93/76
s off
f 91/145/98 90/146/99 99/147/100 98/148/101
f 92/149/102 91/150/103 98/151/104 99/152/105
f 93/153/106 92/154/107 99/155/108
f 90/156/109 94/157/110 99/158/111
f 96/159/112 95/160/113 98/161/114 99/162/115
f 95/163/116 97/164/117 99/165/118 98/166/119
f 97/167/120 93/168/121 99/169/122
f 94/170/123 96/171/124 99/172/125
